<?xml version="1.0" encoding="UTF-8"?>
<svg id="Layer_2" data-name="Layer 2" xmlns="http://www.w3.org/2000/svg" viewBox="0 0 697.83 330.23">
  <defs>
    <style>
      .cls-1 {
        fill: none;
        stroke: #d6532b;
        stroke-miterlimit: 10;
        stroke-width: 22px;
      }

      .cls-2 {
        fill: #d6532b;
      }

      .cls-3 {
        fill: #3f2f23;
      }

      .cls-4 {
        fill: #008a23;
      }
    </style>
  </defs>
  <g id="Layer_1-2" data-name="Layer 1">
    <circle class="cls-1" cx="102.37" cy="227.86" r="57.56"/>
    <circle class="cls-1" cx="102.37" cy="227.86" r="91.37"/>
    <circle class="cls-2" cx="102.37" cy="227.86" r="33.64"/>
    <path class="cls-4" d="M90.26,113.59v113.97c0,10.71,23.71,12.24,23.71,0v-113.97c0-10.33.76-16.06,8.03-17.97s38.24-4.21,55.07-21.03c16.83-16.83,26.01-38.24,27.15-55.84S209.58-1.14,184.73.39c-24.86,1.53-39.01,6.12-56.6,20.27-17.59,14.15-25.77,36.23-26.95,51.1-1.13,14.25-3.81,8.87-4.57,4.86-2.02-10.69-11.32-28.81-23.56-37.99-12.24-9.18-34.8-18.36-53.16-17.97-18.36.38-17.97,4.21-14.53,21.03,3.44,16.83,14.92,31.36,24.86,40.54s34.04,16.83,42.45,16.83,17.59,4.21,17.59,14.53Z"/>
    <g>
      <path class="cls-3" d="M283.36,287.34c-4.96,0-8.76-1.32-11.4-3.96s-3.96-6.44-3.96-11.4v-90.72c0-4.96,1.28-8.72,3.84-11.28s6.16-3.84,10.8-3.84,8.24,1.28,10.8,3.84c2.56,2.56,3.84,6.32,3.84,11.28v15.12h-2.4c2.24-9.6,6.64-16.88,13.2-21.84,6.56-4.96,15.28-7.92,26.16-8.88,3.36-.32,6.04.52,8.04,2.52,2,2,3.16,5.08,3.48,9.24.32,4-.6,7.24-2.76,9.72-2.16,2.48-5.4,3.96-9.72,4.44l-5.28.48c-9.76.96-17.12,3.96-22.08,9-4.96,5.04-7.44,12.12-7.44,21.24v49.68c0,4.96-1.28,8.76-3.84,11.4-2.56,2.64-6.32,3.96-11.28,3.96Z"/>
      <path class="cls-3" d="M408.88,287.82c-12.16,0-22.72-2.48-31.68-7.44-8.96-4.96-15.92-12.04-20.88-21.24-4.96-9.2-7.44-20.04-7.44-32.52,0-9.44,1.4-17.88,4.2-25.32,2.8-7.44,6.84-13.84,12.12-19.2,5.28-5.36,11.6-9.44,18.96-12.24,7.36-2.8,15.6-4.2,24.72-4.2,12.16,0,22.72,2.48,31.68,7.44,8.96,4.96,15.92,12,20.88,21.12,4.96,9.12,7.44,19.92,7.44,32.4,0,9.44-1.4,17.92-4.2,25.44-2.8,7.52-6.84,13.96-12.12,19.32-5.28,5.36-11.6,9.44-18.96,12.24-7.36,2.8-15.6,4.2-24.72,4.2ZM408.88,265.02c5.92,0,11.12-1.44,15.6-4.32,4.48-2.88,7.96-7.16,10.44-12.84,2.48-5.68,3.72-12.76,3.72-21.24,0-12.8-2.72-22.36-8.16-28.68-5.44-6.32-12.64-9.48-21.6-9.48-5.92,0-11.12,1.4-15.6,4.2-4.48,2.8-7.96,7.04-10.44,12.72-2.48,5.68-3.72,12.76-3.72,21.24,0,12.64,2.72,22.2,8.16,28.68,5.44,6.48,12.64,9.72,21.6,9.72Z"/>
      <path class="cls-3" d="M541.12,287.82c-12.16,0-22.72-2.48-31.68-7.44-8.96-4.96-15.92-12.04-20.88-21.24-4.96-9.2-7.44-20.04-7.44-32.52,0-9.44,1.4-17.88,4.2-25.32,2.8-7.44,6.84-13.84,12.12-19.2,5.28-5.36,11.6-9.44,18.96-12.24,7.36-2.8,15.6-4.2,24.72-4.2,12.16,0,22.72,2.48,31.68,7.44,8.96,4.96,15.92,12,20.88,21.12,4.96,9.12,7.44,19.92,7.44,32.4,0,9.44-1.4,17.92-4.2,25.44-2.8,7.52-6.84,13.96-12.12,19.32-5.28,5.36-11.6,9.44-18.96,12.24-7.36,2.8-15.6,4.2-24.72,4.2ZM541.12,265.02c5.92,0,11.12-1.44,15.6-4.32,4.48-2.88,7.96-7.16,10.44-12.84,2.48-5.68,3.72-12.76,3.72-21.24,0-12.8-2.72-22.36-8.16-28.68-5.44-6.32-12.64-9.48-21.6-9.48-5.92,0-11.12,1.4-15.6,4.2-4.48,2.8-7.96,7.04-10.44,12.72-2.48,5.68-3.72,12.76-3.72,21.24,0,12.64,2.72,22.2,8.16,28.68,5.44,6.48,12.64,9.72,21.6,9.72Z"/>
      <path class="cls-3" d="M673.59,287.82c-10.4,0-19.08-1.76-26.04-5.28-6.96-3.52-12.12-8.68-15.48-15.48-3.36-6.8-5.04-15.24-5.04-25.32v-51.12h-12.48c-3.84,0-6.8-1-8.88-3-2.08-2-3.12-4.76-3.12-8.28s1.04-6.48,3.12-8.4c2.08-1.92,5.04-2.88,8.88-2.88h12.48v-21.84c0-4.96,1.32-8.72,3.96-11.28,2.64-2.56,6.36-3.84,11.16-3.84s8.48,1.28,11.04,3.84c2.56,2.56,3.84,6.32,3.84,11.28v21.84h25.44c3.84,0,6.8.96,8.88,2.88,2.08,1.92,3.12,4.72,3.12,8.4s-1.04,6.28-3.12,8.28c-2.08,2-5.04,3-8.88,3h-25.44v49.44c0,7.68,1.68,13.44,5.04,17.28,3.36,3.84,8.8,5.76,16.32,5.76,2.72,0,5.12-.24,7.2-.72,2.08-.48,3.92-.8,5.52-.96,1.92-.16,3.52.44,4.8,1.8,1.28,1.36,1.92,4.12,1.92,8.28,0,3.2-.52,6.04-1.56,8.52-1.04,2.48-2.92,4.2-5.64,5.16-2.08.64-4.8,1.24-8.16,1.8-3.36.56-6.32.84-8.88.84Z"/>
    </g>
  </g>
</svg>